<?xml version="1.0" encoding="utf-8"?>
<!-- Generator: Adobe Illustrator 19.0.1, SVG Export Plug-In . SVG Version: 6.00 Build 0)  -->
<svg version="1.1" id="Слой_1" xmlns="http://www.w3.org/2000/svg" xmlns:xlink="http://www.w3.org/1999/xlink" x="0px" y="0px"
	 viewBox="168 -3.8 455.9 127.8" style="enable-background:new 168 -3.8 455.9 127.8;" xml:space="preserve">
<style type="text/css">
	.st0{fill:#FFFFFF;}
	.st1{enable-background:new    ;}
</style>
<g>
	<g>
		<path class="st0" d="M207.8,89.6c-13.7,9.4-27.3,18.6-40.8,27.9c15.4-18,33.6-32.7,52.8-46.1c-0.6-2.7-1.4-5.2-1.9-7.7
			c-1-5.3,0.1-10.4,2.6-15.1c3.7-6.9,7.7-13.7,11.7-20.4c1.1-1.8,2.6-3.4,4.2-5.5c1.3,2.3,2.4,4.1,3.3,6c0.3,0.6,0,1.6-0.4,2.3
			c-3.9,6.9-8.2,13.6-11.8,20.7c-2.2,4.4-1.1,9.1,0.6,14c45.2-28.1,93-46.8,146.1-50c0.1,0.2,0.2,0.5,0.2,0.7
			c-8.7,2.5-17.4,4.9-26.1,7.5c-8.7,2.7-17.2,5.6-26.2,8.5c2,3.4,3.8,6.4,5.4,9.4c6.5,12.3,6.5,24.7-0.2,36.9
			c-4.7,8.6-9.8,17.1-14.7,25.6c-7.5,13.2-18.8,19.8-34,19.7c-9.9,0-19.7,0.1-29.6,0c-13.8-0.1-24.4-6-31.7-17.7
			C214.3,101,211.3,95.5,207.8,89.6z M217.4,84c3.1,5.5,6.1,10.7,9.1,15.8c5.3,9.1,13.3,13.3,23.8,13.3c10.1-0.1,20.3,0.1,30.4,0
			c9.4-0.1,16.8-4.3,21.7-12.3c5.6-9.2,10.9-18.6,16.2-28c4.6-8.3,4.3-16.8-0.1-25.2c-1.5-2.8-3.4-5.5-4.7-8.4
			c-1-2.2-2.1-2.5-4.4-1.6c-24.3,9.6-47.7,20.8-70.3,33.6c-2.5,1.4-5,2.9-7.6,4.4c2.4,4.2,4.5,8.1,6.8,11.9c3.7,6.1,9,9.2,16.2,9.1
			c6.8-0.1,13.6,0,20.5,0c0.8,0,1.9,0.1,2.2,0.6c1.3,2,2.4,4.1,4,7.1c-9.1,0-17.4,0-25.6,0c-11,0.1-19.3-4.5-24.6-14.2
			c-1.9-3.5-4.1-7-6.2-10.6C222.3,81,220,82.4,217.4,84z"/>
		<path class="st0" d="M201.7,78.8c-5.8-10.3-7.6-21-2.7-31c6.4-13.3,14-26.2,22.3-38.5c6-8.9,15.8-12.8,26.6-13
			c11.2-0.2,22.4-0.3,33.5,0c12.9,0.4,23,6.2,30,17.2c1.5,2.4,2.9,4.9,4.6,7.7c-3.6,1-7,2-10.7,3c-0.9-1.5-1.8-3-2.8-4.5
			c-5.1-8.2-12.5-12.4-22.2-12.5c-10.5,0-20.9,0-31.3,0.1c-9.5,0.1-17,4.1-22,12.3c-5.6,9.3-11.1,18.7-16.4,28.2
			c-4,7.2-4.1,14.8-1,22.4c0.6,1.5,0.6,2.4-0.8,3.3C206.5,75.1,204.3,76.8,201.7,78.8z"/>
	</g>
</g>
<g class="st1">
	<path class="st0" d="M404.4,38.9h8.9V50c-2.4,0.8-5.1,1.2-8,1.2c-3.2,0-5.6-0.9-7.4-2.8c-1.7-1.8-2.6-4.5-2.6-7.9
		c0-3.3,0.9-5.9,2.8-7.8c1.9-1.9,4.6-2.8,8-2.8c1.3,0,2.5,0.1,3.7,0.4s2.2,0.6,3,0.9l-1.8,4.4c-1.5-0.7-3.1-1.1-4.9-1.1
		c-1.6,0-2.9,0.5-3.8,1.6c-0.9,1.1-1.3,2.6-1.3,4.5c0,1.9,0.4,3.4,1.2,4.4c0.8,1,2,1.5,3.5,1.5c0.8,0,1.6-0.1,2.3-0.2v-3.2h-3.7
		V38.9z"/>
	<path class="st0" d="M417.5,50.9V30.3h5.6v16.1h7.9v4.5H417.5z"/>
	<path class="st0" d="M453.6,40.6c0,3.5-0.9,6.1-2.6,7.9c-1.7,1.8-4.2,2.7-7.5,2.7c-3.2,0-5.7-0.9-7.4-2.7c-1.7-1.8-2.6-4.5-2.6-7.9
		c0-3.4,0.9-6.1,2.6-7.9c1.7-1.8,4.2-2.7,7.5-2.7c3.3,0,5.8,0.9,7.5,2.7C452.8,34.5,453.6,37.1,453.6,40.6z M439.5,40.6
		c0,4,1.4,6,4.2,6c1.4,0,2.5-0.5,3.1-1.5c0.7-1,1-2.5,1-4.5c0-2.1-0.3-3.6-1-4.6c-0.7-1-1.7-1.5-3.1-1.5
		C440.8,34.6,439.5,36.6,439.5,40.6z"/>
	<path class="st0" d="M457.4,30.3h7.2c2.8,0,4.9,0.4,6.2,1.2c1.4,0.8,2,2.1,2,3.9c0,1.2-0.3,2.1-0.9,3c-0.6,0.8-1.4,1.3-2.3,1.6v0.1
		c1.3,0.3,2.2,0.9,2.8,1.7c0.6,0.8,0.9,1.8,0.9,3.1c0,1.9-0.7,3.3-2.1,4.4c-1.4,1.1-3.3,1.6-5.7,1.6h-8V30.3z M462.9,38.2h1.7
		c0.8,0,1.4-0.2,1.9-0.5c0.4-0.3,0.7-0.8,0.7-1.5c0-1.2-0.9-1.7-2.6-1.7h-1.6V38.2z M462.9,42.3v4.3h2c1.7,0,2.6-0.7,2.6-2.2
		c0-0.7-0.2-1.2-0.7-1.6c-0.5-0.4-1.1-0.5-2-0.5H462.9z"/>
	<path class="st0" d="M489.5,50.9l-1-3.9h-6.7l-1,3.9h-6.1l6.7-20.7h7.4l6.8,20.7H489.5z M487.3,42.5l-0.9-3.4
		c-0.2-0.8-0.5-1.7-0.8-2.9c-0.3-1.2-0.5-2-0.6-2.6c-0.1,0.5-0.3,1.3-0.5,2.4s-0.8,3.3-1.7,6.5H487.3z"/>
	<path class="st0" d="M497.8,50.9V30.3h5.6v16.1h7.9v4.5H497.8z"/>
	<path class="st0" d="M538.7,50.9h-5.6V34.9h-5v-4.6h15.6v4.6h-5V50.9z"/>
	<path class="st0" d="M552.2,43.4v7.5h-5.6V30.3h6.8c5.6,0,8.4,2,8.4,6.1c0,2.4-1.2,4.2-3.5,5.5l6,9H558l-4.4-7.5H552.2z
		 M552.2,39.2h1c1.9,0,2.9-0.9,2.9-2.6c0-1.4-1-2.1-2.9-2.1h-1.1V39.2z"/>
	<path class="st0" d="M578.9,50.9l-1-3.9h-6.7l-1,3.9H564l6.7-20.7h7.4l6.8,20.7H578.9z M576.7,42.5l-0.9-3.4
		c-0.2-0.8-0.5-1.7-0.8-2.9c-0.3-1.2-0.5-2-0.6-2.6c-0.1,0.5-0.3,1.3-0.5,2.4s-0.8,3.3-1.7,6.5H576.7z"/>
	<path class="st0" d="M604.7,40.2c0,3.4-0.9,6.1-2.8,8s-4.6,2.8-8,2.8h-6.7V30.3h7.1c3.3,0,5.9,0.8,7.7,2.5
		C603.8,34.5,604.7,37,604.7,40.2z M598.9,40.4c0-1.9-0.4-3.3-1.1-4.2s-1.9-1.4-3.4-1.4h-1.6v11.5h1.2c1.7,0,2.9-0.5,3.7-1.5
		C598.5,43.9,598.9,42.4,598.9,40.4z"/>
	<path class="st0" d="M620.6,50.9h-12.2V30.3h12.2v4.5h-6.7V38h6.2v4.5h-6.2v3.9h6.7V50.9z"/>
</g>
<g class="st1">
	<path class="st0" d="M411.1,71.6c0,2.3-0.7,4.1-2,5.3c-1.4,1.3-3.3,1.9-5.8,1.9h-1.6v6.8h-5.6V65h7.1c2.6,0,4.6,0.6,5.9,1.7
		S411.1,69.5,411.1,71.6z M401.7,74.3h1c0.8,0,1.5-0.2,2-0.7s0.7-1.1,0.7-1.9c0-1.4-0.8-2.1-2.3-2.1h-1.4V74.3z"/>
	<path class="st0" d="M414.4,85.6V65h5.6v16.1h7.9v4.5H414.4z"/>
	<path class="st0" d="M443.9,85.6l-1-3.9h-6.7l-1,3.9H429l6.7-20.7h7.4l6.8,20.7H443.9z M441.7,77.2l-0.9-3.4
		c-0.2-0.8-0.5-1.7-0.8-2.9c-0.3-1.2-0.5-2-0.6-2.6c-0.1,0.5-0.3,1.3-0.5,2.4s-0.8,3.3-1.7,6.5H441.7z"/>
	<path class="st0" d="M461.3,85.6h-5.6V69.6h-5V65h15.6v4.6h-5V85.6z"/>
	<path class="st0" d="M474.7,85.6h-5.5V65h12.2v4.5h-6.7v3.9h6.2v4.5h-6.2V85.6z"/>
	<path class="st0" d="M504.1,75.3c0,3.5-0.9,6.1-2.6,7.9c-1.7,1.8-4.2,2.7-7.5,2.7c-3.2,0-5.7-0.9-7.4-2.7c-1.7-1.8-2.6-4.5-2.6-7.9
		c0-3.4,0.9-6.1,2.6-7.9c1.7-1.8,4.2-2.7,7.5-2.7c3.3,0,5.8,0.9,7.5,2.7C503.3,69.2,504.1,71.8,504.1,75.3z M489.9,75.3
		c0,4,1.4,6,4.2,6c1.4,0,2.5-0.5,3.1-1.5c0.7-1,1-2.5,1-4.5c0-2.1-0.3-3.6-1-4.6c-0.7-1-1.7-1.5-3.1-1.5
		C491.3,69.3,489.9,71.3,489.9,75.3z"/>
	<path class="st0" d="M513.4,78.1v7.5h-5.6V65h6.8c5.6,0,8.4,2,8.4,6.1c0,2.4-1.2,4.2-3.5,5.5l6,9h-6.3l-4.4-7.5H513.4z M513.4,73.9
		h1c1.9,0,2.9-0.9,2.9-2.6c0-1.4-1-2.1-2.9-2.1h-1.1V73.9z"/>
	<path class="st0" d="M536.4,85.6l-4.2-14.8H532c0.2,2.5,0.3,4.5,0.3,5.9v9h-4.9V65h7.4l4.3,14.6h0.1l4.2-14.6h7.4v20.6h-5.1v-9
		c0-0.5,0-1,0-1.6s0.1-2,0.2-4.2h-0.1l-4.2,14.8H536.4z"/>
</g>
</svg>
