<?xml version="1.0" encoding="utf-8"?>
<!-- Generator: Adobe Illustrator 19.0.1, SVG Export Plug-In . SVG Version: 6.00 Build 0)  -->
<svg version="1.1" id="Слой_1" xmlns="http://www.w3.org/2000/svg" xmlns:xlink="http://www.w3.org/1999/xlink" x="0px" y="0px"
	 viewBox="0 0 269.6 289.3" style="enable-background:new 0 0 269.6 289.3;" xml:space="preserve">
<style type="text/css">
	.st0{fill:none;}
</style>
<g>
	<g>
		<path d="M267.8,283.1c-0.2-0.3-0.5-0.6-0.7-0.9c-0.1,0-0.3-0.1-0.5-0.1c-0.4-0.1-0.8-0.2-1.3-0.4l-1.7-0.6v-235c0-0.4,0-0.7,0-1.1
			c0-0.8,0-1.6,0-2.4c-0.1-2-1.1-4.2-3.4-4.2H260c-2,0-3.3,1.6-3.4,4c0,0.9,0,1.7,0,2.7c0,0.4,0,0.8,0,1.2l0,209.9H135.8V7.2h120.8
			v2.5c0,0.7,0,1.4,0,2c0,1.4,0,2.7,0,3.9c0,1,0.4,4.2,3.5,4.1c2,0,3.3-1.5,3.4-4c0.1-2.2,0.1-4.6,0-6.8c0-0.9,0-1.8,0-2.7
			c0-5.6-0.8-6.3-6.2-6.3c-40.7,0-81.3,0-122,0c-6.7,0-7,0.3-7,7.1c0,27.8,0,55.6,0,83.5v37.7l-38.9,0c-26.7,0-53.4,0-80.1,0
			c-3.8,0-7.4,0.1-8.4,1.1c-1,0.9-1,4.3-1,8.2c0,11.6,0,23.3,0,34.9c0,8.5,0,17,0,25.5c0,1.1-0.1,2.2-0.1,3.3c0,0.5-0.1,1.1-0.1,1.7
			l-0.1,2.4V264h0.2v18h-0.2v7.3c51.7,0,103.4,0,155,0l108.3,0c0.4,0,0.9,0,1.3,0c0.6,0,1.7,0.1,2,0c2.4-1.7,3.2-3,3.4-3.5
			C269.5,285.2,268.4,283.8,267.8,283.1z M128,282H7.3v-18.1H128V282z M128.1,256.3H7.4V135.6h120.7V256.3z M256.3,281.9H135.6v-18
			h120.7V281.9z"/>
	</g>
	<g>
		<path d="M231.5,131.8c-0.2,2.3-1.3,3.3-3.8,3.5l-0.3,0c-0.3,0-0.5,0-0.8,0h-5.9v-0.1h-2.5c-1,0-1.9,0-2.9,0
			c-2.1,0-4.2,0.1-6.2-0.1c-1.2-0.1-3.9-0.5-3.8-3.3c0.1-2.3,1.2-3.4,3.4-3.4c6.8-0.2,13-0.3,19,0c1.2,0,2.3,0.5,2.9,1.3
			C231.3,130.2,231.5,131,231.5,131.8z"/>
	</g>
	<g>
		<path d="M231.4,29.3c-0.1,2.1-1.2,3.2-3.2,3.3c-2.2,0.1-4.5,0.1-6.8,0.1c-1,0-2,0-3.1,0h-2.5v0c-0.2,0-0.3,0-0.5,0
			c-2.2,0-4.4,0-6.5-0.1c-2.2-0.1-3.2-1.1-3.4-3.2c-0.1-1.1,0.2-2,0.7-2.6c0.4-0.5,1.1-0.8,1.9-0.8c3.2-0.2,6.4-0.2,9.8-0.2
			c3.6,0,7.4,0.1,11.1,0.3C230.9,26.1,231.5,27.8,231.4,29.3z"/>
	</g>
	<g>
		<path d="M231.4,55c-0.1,2.2-1.3,3.2-3.6,3.3c-2.2,0.1-4.4,0.1-6.5,0c-0.1,0-0.3,0-0.4,0l-2.5,0c-1,0-2,0-2.9,0c-2.2,0-4.4,0-6.5,0
			c-2.2-0.1-3.2-1-3.5-3.2c-0.1-0.9,0.1-1.8,0.7-2.4c0.5-0.6,1.3-1,2.2-1c6.5-0.3,13.4-0.3,20.4,0c0.9,0,1.5,0.3,2,0.8
			C231.2,53,231.5,53.9,231.4,55z"/>
	</g>
	<g>
		<path d="M186.5,80.7c0,2.1-1.9,3-3.7,3.2c-0.2,0-0.4,0-0.6,0l-8.8,0c-1,0-1.9,0-2.8,0c-2.1,0-4.2,0-6.3,0c-3-0.1-3.6-1.6-3.7-3.2
			c-0.1-1,0.1-1.9,0.7-2.5c0.5-0.6,1.3-0.9,2.3-1c3-0.1,6.1-0.2,9.3-0.2c3.4,0,7,0.1,10.8,0.2C185.5,77.3,186.5,78.5,186.5,80.7z"/>
	</g>
	<g>
		<path d="M186.5,208.6c0.1,1.1-0.2,2-0.7,2.6c-0.5,0.5-1.1,0.8-2,0.8c-7,0.3-13.9,0.3-20.5,0c-0.9,0-1.5-0.3-2-0.8
			c-0.5-0.6-0.8-1.5-0.7-2.6c0.1-2.1,1.1-3,3.3-3.2c1.2-0.1,2.5-0.1,3.8-0.1c1,0,2,0,3,0c1,0,2,0,3,0c1,0,2,0,3,0c2.1,0,4.3,0,6.5,0
			C185.3,205.5,186.4,206.5,186.5,208.6z"/>
	</g>
	<g>
		<path d="M186.6,29.5c0,2.1-2,3-3.8,3.2c-0.2,0-0.4,0-0.6,0h-6.3v-0.1h-2.5c-1,0-2,0-3,0c-2.1,0-4.4,0-6.5-0.1
			c-2.2-0.1-3.2-1.1-3.3-3.2c-0.1-1.1,0.2-2,0.7-2.6c0.5-0.5,1.1-0.8,2-0.8c6.6-0.3,13.5-0.3,20.5,0C186.1,26,186.5,27.9,186.6,29.5
			z"/>
	</g>
	<g>
		<path d="M231.4,80.6c-0.1,1.4-0.5,3.2-3.6,3.3c-2.2,0.1-4.4,0-6.5,0c-0.1,0-0.3,0-0.5,0l-2.5,0c-1,0-2,0-2.9,0c-2.2,0-4.4,0-6.5,0
			c-2.2-0.1-3.2-1-3.5-3.2c-0.1-0.9,0.1-1.8,0.7-2.5c0.5-0.6,1.3-1,2.2-1c6.3-0.3,13-0.3,20.4,0c0.9,0,1.6,0.3,2,0.8
			C231.2,78.7,231.5,79.6,231.4,80.6z"/>
	</g>
	<g>
		<path d="M231.5,106.3c-0.1,2.7-2.7,3.2-4.1,3.3c-2,0.1-4.2,0.1-6.2,0c-0.1,0-0.2,0-0.3,0l-2.5,0c-0.9,0-1.9,0-2.8,0
			c-2.1,0-4.2,0-6.3,0c-2.4-0.1-3.5-1-3.7-3.3c-0.1-0.9,0.2-1.7,0.7-2.3c0.6-0.7,1.6-1.1,2.8-1.2c6.1-0.3,12.5-0.3,19,0
			c1.1,0,2.1,0.5,2.8,1.2C231.2,104.6,231.5,105.4,231.5,106.3z"/>
	</g>
	<g>
		<path d="M231.5,183.2c0,1.9-1.6,3.3-4,3.4c-2,0.1-4,0.1-6.1,0.1c-0.9,0-1.9,0-2.8,0c-0.9,0-1.9,0-2.9,0c-2.1,0-4.2,0.1-6.2-0.1
			c-1.3-0.1-4.1-0.6-4-3.6c0.1-2.6,2.3-3.2,4.1-3.2c3-0.1,5.9-0.1,8.9-0.1c3,0,6,0,9,0.1C229.9,179.8,231.5,181.1,231.5,183.2z"/>
	</g>
	<g>
		<path d="M231.5,208.6c0.1,2-1.5,3.5-4,3.6c-2,0.1-4,0.1-6.2,0.1c-1,0-1.9,0-2.9,0h-2.3v0.1c-0.2,0-0.4,0-0.6,0
			c-2.1,0-4.1,0.1-6.1-0.1c-2.6-0.2-4.1-1.6-4-3.7c0.1-2.6,2.3-3.2,4.1-3.2c3.3-0.1,6.5-0.1,9.7-0.1c2.8,0,5.5,0,8.2,0.1
			C228.5,205.4,231.3,205.7,231.5,208.6z"/>
	</g>
	<g>
		<path d="M186.6,234.3c0.1,2-1.5,3.5-4.1,3.6c-2,0.1-4,0.1-6.2,0.1c-0.1,0-0.3,0-0.4,0v-0.1h-2.5c-1,0-1.9,0-2.9,0
			c-2.1,0-4.1,0.1-6.2-0.1c-1.9-0.1-4.1-0.9-3.9-3.7c0-0.8,0.2-3.1,4.1-3.2c6-0.1,12-0.1,17.9,0C185,231.1,186.5,232.3,186.6,234.3z
			"/>
	</g>
	<g>
		<path d="M231.5,234.3c0,0.9-0.3,1.8-0.9,2.4c-0.4,0.5-1.2,1-2.4,1.1c-6.7,0.3-13.4,0.3-19.8,0c-1-0.1-1.7-0.4-2.3-1
			c-0.6-0.6-0.9-1.5-0.8-2.6c0.1-2.6,2.5-3.1,3.8-3.2c0.2,0,0.4,0,0.6,0c0,0,0,0,0,0l8.8,0c1,0,1.9,0,2.9,0c2,0,4.2-0.1,6.2,0
			C230,231.1,231.4,232.4,231.5,234.3z"/>
	</g>
	<g>
		<path d="M186.5,55.1c0,2.1-2,3-3.7,3.2c-0.2,0-0.4,0-0.6,0l-8.8,0c-0.9,0-1.9,0-2.8,0c-2.1,0-4.2,0-6.3,0c-3-0.1-3.6-1.6-3.8-3.2
			c-0.1-1,0.1-1.9,0.7-2.5c0.5-0.6,1.3-0.9,2.3-1c3-0.1,6-0.2,9.2-0.2c3.5,0,7.1,0.1,10.9,0.3C185.5,51.6,186.5,52.8,186.5,55.1z"/>
	</g>
	<g>
		<path d="M186.5,106.1c-0.3,2.3-1.3,3.4-3.7,3.4c-2.2,0-4.4,0-6.6,0c-0.2,0-0.3,0-0.5,0l-2.5,0c-1,0-2,0-3,0c-2.3,0-4.4,0-6.5-0.1
			c-2.2-0.1-3.2-1.1-3.3-3.2c-0.1-1,0.2-1.8,0.7-2.4c0.5-0.6,1.3-0.9,2.4-1c6.4-0.3,13.1-0.3,19.7-0.1c1,0,1.9,0.4,2.5,1.1
			C186.4,104.6,186.6,105.3,186.5,106.1z"/>
	</g>
	<g>
		<path d="M186.6,183c0.1,1.9-1.5,3.3-3.8,3.5c-2.1,0.2-4.2,0.1-6.4,0.1c-1,0-2,0-3,0h-2.5v0.1c-0.1,0-0.3,0-0.4,0
			c-2.1,0-4.1,0.1-6.1-0.1c-2.5-0.2-3.8-1.4-3.8-3.5c0-2.1,1.3-3.3,3.8-3.3c3.3-0.1,6.5-0.1,9.8-0.1c2.8,0,5.7,0,8.5,0.1
			C185,179.8,186.5,181,186.6,183z"/>
	</g>
	<g>
		<path d="M231.5,157.5c0.1,0.9-0.3,1.6-0.6,2c-0.7,0.8-1.8,1.3-3.1,1.4c-2.1,0.1-4.2,0.1-6.4,0.1c-1,0-2,0-3,0h-2.5v0h-0.4
			c-2.1,0-4.2,0.1-6.2-0.1c-1.8-0.1-3.9-0.8-3.9-3.4c0-2.1,1.3-3.3,3.8-3.4c2.6-0.1,5.2-0.1,7.7-0.1c3.8,0,7.6,0.1,11,0.1
			C230.1,154.1,231.2,155.2,231.5,157.5z"/>
	</g>
	<g>
		<path d="M186.5,131.8c0,2.1-1,3.2-3.1,3.3c-2.2,0.1-4.5,0.1-6.8,0c-1,0-2.1,0-3.1,0H171v0.1h-0.5c-2.2,0-4.4,0.1-6.5,0
			c-2.4-0.1-3.4-1.1-3.5-3.4c0-0.7,0.1-1.6,0.7-2.3c0.5-0.6,1.4-0.9,2.5-1c2.6-0.1,5.3-0.1,8.2-0.1c3.6,0,7.4,0.1,11.6,0.2
			C186,128.6,186.5,130.4,186.5,131.8z"/>
	</g>
	<g>
		<path d="M186.5,157.4c-0.2,2.3-1.3,3.4-3.6,3.5c-2.1,0.1-4.3,0.1-6.5,0.1c-1,0-2,0-3,0H171v0c-0.2,0-0.3,0-0.5,0
			c-2.2,0-4.3,0.1-6.4-0.1c-1.4-0.1-3.8-0.7-3.6-3.5c0.2-2.2,1.3-3.2,3.6-3.3c3.5-0.1,6.7-0.1,9.8-0.1c3.1,0,6.1,0,8.9,0.1
			c1.3,0,2.4,0.5,3,1.2C186.4,155.9,186.6,156.6,186.5,157.4z"/>
	</g>
	<g>
		<path d="M103.1,183c0,1.1-0.2,2-0.7,2.6c-0.4,0.5-1.1,0.7-2,0.8c-6.8,0.3-13.7,0.3-20.5,0c-0.9,0-1.5-0.3-1.9-0.8
			c-0.5-0.6-0.8-1.5-0.7-2.7c0.1-2.1,1.1-3,3.3-3.1c1.2-0.1,2.5-0.1,3.8-0.1c1,0,2.1,0,3.1,0c1,0,2,0,3,0c1,0,2,0,3,0
			c2.1,0,4.3,0,6.5,0C102,179.9,103,180.9,103.1,183z"/>
	</g>
	<g>
		<path d="M57.5,185.5c-0.5,0.6-1.3,0.9-2.3,0.9c-6.3,0.3-12.8,0.3-20.1,0c-1.9-0.1-2.8-1.2-2.8-3.4c0.1-2.1,1.1-3.1,3.2-3.2
			c1.2-0.1,2.5-0.1,3.8-0.1c1,0,2,0,3,0c1,0,2,0,3.1,0c1,0,2,0,3,0c2.1,0,4.4,0,6.5,0c2.2,0.1,3.2,1,3.4,3.2
			C58.3,184,58,184.9,57.5,185.5z"/>
	</g>
	<g>
		<path d="M54.2,212.3c-0.2,0-0.4,0-0.5,0l-8.4,0c-1,0-1.9,0-2.9,0c-2.1,0-4.1,0.1-6.1-0.1c-1.3-0.1-4.1-0.6-4-3.7
			c0.1-2.1,1.5-3.2,4-3.2c3-0.1,6-0.1,9-0.1c3,0,5.9,0,8.8,0.1c3.9,0.1,4,2.3,4,3.2C58.2,209.5,58.3,211.8,54.2,212.3z"/>
	</g>
	<g>
		<path d="M102.4,211c-0.6,0.7-1.5,1.1-2.7,1.1c-6.3,0.3-12.8,0.2-19.4,0c-2.2-0.1-3.2-1.2-3.1-3.5c0-0.7,0-3,3.6-3.2
			c1.2-0.1,2.4-0.1,3.6-0.1c1,0,1.9,0,2.9,0c0.2,0,0.3,0,0.5,0l2.5,0c0.9,0,1.9,0,2.8,0c2.1,0,4.2,0,6.3,0c2.4,0.1,3.5,1,3.7,3.3
			C103.2,209.6,103,210.4,102.4,211z"/>
	</g>
	<g>
		<path d="M54.4,237.9c-0.2,0-0.3,0-0.5,0l-8.8,0c-1,0-1.9,0-2.9,0c-2.1,0-4.1,0.1-6.1-0.1c-1.2-0.1-4.1-0.7-3.9-3.7
			c0.1-2.1,1.5-3.1,4.1-3.2c3.4-0.1,6.6-0.1,9.7-0.1c2.9,0,5.6,0,8.2,0.1c3.8,0.1,3.9,2.5,3.9,3.3C58.2,235.1,58.3,237.4,54.4,237.9
			z"/>
	</g>
	<g>
		<path d="M103.1,234.3c0.1,1.5-0.7,3.4-3.2,3.5c-6.7,0.3-13.4,0.3-19.7,0c-1-0.1-1.8-0.4-2.3-1c-0.5-0.6-0.8-1.5-0.7-2.5
			c0.2-1.8,0.8-3.1,3.7-3.3c0.2,0,0.4,0,0.7,0h6.3l2.5,0c1,0,1.9,0,2.9,0c2,0,4.2-0.1,6.2,0C100.8,231.1,103,231.6,103.1,234.3z"/>
	</g>
	<g>
		<path d="M58.2,157.3c0.1,2.2-0.9,3.3-2.7,3.4c-6.5,0.2-13.4,0.2-20.6-0.1c-1.7-0.1-2.6-1.1-2.6-3.2c0-2.2,0.9-3.2,3-3.3
			c1.3-0.1,2.6-0.1,3.9-0.1c1,0,2.1,0,3.1,0c1.1,0,2.1,0,3.2,0l2.5,0v0c0.2,0,0.3,0,0.5,0c2.2,0,4.3-0.1,6.5,0.1
			C57.2,154.3,58.1,155.2,58.2,157.3z"/>
	</g>
	<g>
		<path d="M103.1,157.5c0.1,2.4-1.8,3.1-3.5,3.4c-0.3,0-0.6,0.1-0.8,0.1c-2.1,0-4.2,0-6.3,0v-0.1H90c-1,0-2,0-3,0
			c-2.2,0-4.3,0.1-6.4-0.1c-2.3-0.2-3.5-1.3-3.4-3.4c0.1-2.3,1.1-3.3,3.4-3.3c6.1-0.2,12.5-0.2,19,0
			C102,154.2,103,155.2,103.1,157.5z"/>
	</g>
</g>
<polyline class="st0" points="-0.3,289.3 -0.3,289.3 -0.3,282 -0.3,264 -0.3,256.4 -0.3,213.2 -0.3,205.3 "/>
</svg>
