<?xml version="1.0" encoding="utf-8"?>
<!-- Generator: Adobe Illustrator 19.0.1, SVG Export Plug-In . SVG Version: 6.00 Build 0)  -->
<svg version="1.1" id="Слой_1" xmlns="http://www.w3.org/2000/svg" xmlns:xlink="http://www.w3.org/1999/xlink" x="0px" y="0px"
	 viewBox="0 0 453.6 127.8" style="enable-background:new 0 0 453.6 127.8;" xml:space="preserve">
<style type="text/css">
	.st0{fill:url(#SVGID_1_);}
	.st1{fill:url(#SVGID_2_);}
	.st2{fill:#08A0EB;}
</style>
<g>
	<g>
		<linearGradient id="SVGID_1_" gradientUnits="userSpaceOnUse" x1="0" y1="73.6265" x2="207.5998" y2="73.6265">
			<stop  offset="0" style="stop-color:#08A0EB"/>
			<stop  offset="1" style="stop-color:#293D96"/>
		</linearGradient>
		<path class="st0" d="M40.8,93.4C27.1,102.8,13.5,112,0,121.3c15.4-18,33.6-32.7,52.8-46.1c-0.6-2.7-1.4-5.2-1.9-7.7
			c-1-5.3,0.1-10.4,2.6-15.1c3.7-6.9,7.7-13.7,11.7-20.4c1.1-1.8,2.6-3.4,4.2-5.5c1.3,2.3,2.4,4.1,3.3,6c0.3,0.6,0,1.6-0.4,2.3
			c-3.9,6.9-8.2,13.6-11.8,20.7c-2.2,4.4-1.1,9.1,0.6,14c45.2-28.1,93-46.8,146.1-50c0.1,0.2,0.2,0.5,0.2,0.7
			c-8.7,2.5-17.4,4.9-26.1,7.5c-8.7,2.7-17.2,5.6-26.2,8.5c2,3.4,3.8,6.4,5.4,9.4c6.5,12.3,6.5,24.7-0.2,36.9
			c-4.7,8.6-9.8,17.1-14.7,25.6c-7.5,13.2-18.8,19.8-34,19.7c-9.9,0-19.7,0.1-29.6,0c-13.8-0.1-24.4-6-31.7-17.7
			C47.3,104.8,44.3,99.3,40.8,93.4z M50.4,87.8c3.1,5.5,6.1,10.7,9.1,15.8c5.3,9.1,13.3,13.3,23.8,13.3c10.1-0.1,20.3,0.1,30.4,0
			c9.4-0.1,16.8-4.3,21.7-12.3c5.6-9.2,10.9-18.6,16.2-28c4.6-8.3,4.3-16.8-0.1-25.2c-1.5-2.8-3.4-5.5-4.7-8.4
			c-1-2.2-2.1-2.5-4.4-1.6C118.1,51,94.7,62.2,72.1,75c-2.5,1.4-5,2.9-7.6,4.4c2.4,4.2,4.5,8.1,6.8,11.9c3.7,6.1,9,9.2,16.2,9.1
			c6.8-0.1,13.6,0,20.5,0c0.8,0,1.9,0.1,2.2,0.6c1.3,2,2.4,4.1,4,7.1c-9.1,0-17.4,0-25.6,0c-11,0.1-19.3-4.5-24.6-14.2
			c-1.9-3.5-4.1-7-6.2-10.6C55.3,84.8,53,86.2,50.4,87.8z"/>
		<linearGradient id="SVGID_2_" gradientUnits="userSpaceOnUse" x1="29.1489" y1="41.296" x2="148.883" y2="41.296">
			<stop  offset="0" style="stop-color:#08A0EB"/>
			<stop  offset="1" style="stop-color:#293D96"/>
		</linearGradient>
		<path class="st1" d="M34.7,82.6c-5.8-10.3-7.6-21-2.7-31c6.4-13.3,14-26.2,22.3-38.5c6-8.9,15.8-12.8,26.6-13
			c11.2-0.2,22.4-0.3,33.5,0c12.9,0.4,23,6.2,30,17.2c1.5,2.4,2.9,4.9,4.6,7.7c-3.6,1-7,2-10.7,3c-0.9-1.5-1.8-3-2.8-4.5
			c-5.1-8.2-12.5-12.4-22.2-12.5C102.8,11,92.4,11,82,11.1c-9.5,0.1-17,4.1-22,12.3c-5.6,9.3-11.1,18.7-16.4,28.2
			c-4,7.2-4.1,14.8-1,22.4c0.6,1.5,0.6,2.4-0.8,3.3C39.5,78.9,37.3,80.6,34.7,82.6z"/>
	</g>
</g>
<g>
	<path class="st2" d="M237.4,42.7h8.9v11.1c-2.4,0.8-5.1,1.2-8,1.2c-3.2,0-5.6-0.9-7.4-2.8c-1.7-1.8-2.6-4.5-2.6-7.9
		c0-3.3,0.9-5.9,2.8-7.8c1.9-1.9,4.6-2.8,8-2.8c1.3,0,2.5,0.1,3.7,0.4c1.2,0.2,2.2,0.6,3,0.9l-1.8,4.4c-1.5-0.7-3.1-1.1-4.9-1.1
		c-1.6,0-2.9,0.5-3.8,1.6c-0.9,1.1-1.3,2.6-1.3,4.5c0,1.9,0.4,3.4,1.2,4.4c0.8,1,2,1.5,3.5,1.5c0.8,0,1.6-0.1,2.3-0.2V47h-3.7V42.7z
		"/>
	<path class="st2" d="M250.5,54.7V34.1h5.6v16.1h7.9v4.5H250.5z"/>
	<path class="st2" d="M286.6,44.4c0,3.5-0.9,6.1-2.6,7.9c-1.7,1.8-4.2,2.7-7.5,2.7c-3.2,0-5.7-0.9-7.4-2.7s-2.6-4.5-2.6-7.9
		c0-3.4,0.9-6.1,2.6-7.9c1.7-1.8,4.2-2.7,7.5-2.7c3.3,0,5.8,0.9,7.5,2.7C285.8,38.3,286.6,40.9,286.6,44.4z M272.5,44.4
		c0,4,1.4,6,4.2,6c1.4,0,2.5-0.5,3.1-1.5c0.7-1,1-2.5,1-4.5c0-2.1-0.3-3.6-1-4.6c-0.7-1-1.7-1.5-3.1-1.5
		C273.8,38.4,272.5,40.4,272.5,44.4z"/>
	<path class="st2" d="M290.4,34.1h7.2c2.8,0,4.9,0.4,6.2,1.2s2,2.1,2,3.9c0,1.2-0.3,2.1-0.9,3c-0.6,0.8-1.4,1.3-2.3,1.6v0.1
		c1.3,0.3,2.2,0.9,2.8,1.7c0.6,0.8,0.9,1.8,0.9,3.1c0,1.9-0.7,3.3-2.1,4.4c-1.4,1.1-3.3,1.6-5.7,1.6h-8V34.1z M295.9,42h1.7
		c0.8,0,1.4-0.2,1.9-0.5c0.4-0.3,0.7-0.8,0.7-1.5c0-1.2-0.9-1.7-2.6-1.7h-1.6V42z M295.9,46.1v4.3h2c1.7,0,2.6-0.7,2.6-2.2
		c0-0.7-0.2-1.2-0.7-1.6s-1.1-0.6-2-0.6H295.9z"/>
	<path class="st2" d="M322.5,54.7l-1-3.9h-6.7l-1,3.9h-6.1l6.7-20.7h7.4l6.8,20.7H322.5z M320.3,46.3l-0.9-3.4
		c-0.2-0.8-0.5-1.7-0.8-2.9c-0.3-1.2-0.5-2-0.6-2.6c-0.1,0.5-0.3,1.3-0.5,2.4s-0.8,3.3-1.7,6.5H320.3z"/>
	<path class="st2" d="M330.8,54.7V34.1h5.6v16.1h7.9v4.5H330.8z"/>
	<path class="st2" d="M371.7,54.7h-5.6V38.7h-5v-4.6h15.6v4.6h-5V54.7z"/>
	<path class="st2" d="M385.2,47.2v7.5h-5.6V34.1h6.8c5.6,0,8.4,2,8.4,6.1c0,2.4-1.2,4.2-3.5,5.5l6,9H391l-4.4-7.5H385.2z M385.2,43
		h1c1.9,0,2.9-0.9,2.9-2.6c0-1.4-1-2.1-2.9-2.1h-1.1V43z"/>
	<path class="st2" d="M411.9,54.7l-1-3.9h-6.7l-1,3.9H397l6.7-20.7h7.4l6.8,20.7H411.9z M409.7,46.3l-0.9-3.4
		c-0.2-0.8-0.5-1.7-0.8-2.9c-0.3-1.2-0.5-2-0.6-2.6c-0.1,0.5-0.3,1.3-0.5,2.4s-0.8,3.3-1.7,6.5H409.7z"/>
	<path class="st2" d="M437.7,44c0,3.4-0.9,6.1-2.8,8s-4.6,2.8-8,2.8h-6.7V34.1h7.1c3.3,0,5.9,0.8,7.7,2.5
		C436.8,38.3,437.7,40.8,437.7,44z M431.9,44.2c0-1.9-0.4-3.3-1.1-4.2c-0.7-0.9-1.9-1.4-3.4-1.4h-1.6v11.5h1.2
		c1.7,0,2.9-0.5,3.7-1.5C431.5,47.7,431.9,46.2,431.9,44.2z"/>
	<path class="st2" d="M453.6,54.7h-12.2V34.1h12.2v4.5h-6.7v3.2h6.2v4.5h-6.2v3.9h6.7V54.7z"/>
	<path class="st2" d="M244.1,75.3c0,2.3-0.7,4.1-2,5.3c-1.4,1.3-3.3,1.9-5.8,1.9h-1.6v6.8h-5.6V68.8h7.1c2.6,0,4.6,0.6,5.9,1.7
		C243.5,71.6,244.1,73.2,244.1,75.3z M234.7,78h1c0.8,0,1.5-0.2,2-0.7c0.5-0.5,0.7-1.1,0.7-1.9c0-1.4-0.8-2.1-2.3-2.1h-1.4V78z"/>
	<path class="st2" d="M247.4,89.4V68.8h5.6v16.1h7.9v4.5H247.4z"/>
	<path class="st2" d="M276.9,89.4l-1-3.9h-6.7l-1,3.9H262l6.7-20.7h7.4l6.8,20.7H276.9z M274.7,81l-0.9-3.4
		c-0.2-0.8-0.5-1.7-0.8-2.9c-0.3-1.2-0.5-2-0.6-2.6c-0.1,0.5-0.3,1.3-0.5,2.4c-0.2,1.1-0.8,3.3-1.7,6.5H274.7z"/>
	<path class="st2" d="M294.3,89.4h-5.6V73.3h-5v-4.6h15.6v4.6h-5V89.4z"/>
	<path class="st2" d="M307.7,89.4h-5.5V68.8h12.2v4.5h-6.7v3.9h6.2v4.5h-6.2V89.4z"/>
	<path class="st2" d="M337.1,79.1c0,3.5-0.9,6.1-2.6,7.9c-1.7,1.8-4.2,2.7-7.5,2.7c-3.2,0-5.7-0.9-7.4-2.7c-1.7-1.8-2.6-4.5-2.6-7.9
		c0-3.4,0.9-6.1,2.6-7.9c1.7-1.8,4.2-2.7,7.5-2.7c3.3,0,5.8,0.9,7.5,2.7C336.3,72.9,337.1,75.6,337.1,79.1z M322.9,79.1
		c0,4,1.4,6,4.2,6c1.4,0,2.5-0.5,3.1-1.5c0.7-1,1-2.5,1-4.5c0-2.1-0.3-3.6-1-4.6c-0.7-1-1.7-1.5-3.1-1.5
		C324.3,73,322.9,75,322.9,79.1z"/>
	<path class="st2" d="M346.4,81.9v7.5h-5.6V68.8h6.8c5.6,0,8.4,2,8.4,6.1c0,2.4-1.2,4.2-3.5,5.5l6,9h-6.3l-4.4-7.5H346.4z
		 M346.4,77.7h1c1.9,0,2.9-0.9,2.9-2.6c0-1.4-1-2.1-2.9-2.1h-1.1V77.7z"/>
	<path class="st2" d="M369.4,89.4l-4.2-14.8H365c0.2,2.5,0.3,4.5,0.3,5.9v9h-4.9V68.8h7.4l4.3,14.6h0.1l4.2-14.6h7.4v20.6h-5.1v-9
		c0-0.5,0-1,0-1.6c0-0.6,0.1-2,0.2-4.2h-0.1l-4.2,14.8H369.4z"/>
</g>
</svg>
